<svg width="785" height="646" viewBox="0 0 785 646" fill="none" xmlns="http://www.w3.org/2000/svg">
<circle cx="137.5" cy="92.5" r="34.5" fill="#F45052"/>
<circle cx="618.42" cy="430.42" r="148.42" fill="#1F9C64"/>
<g filter="url(#filter0_d_437_2425)">
<rect x="126" y="105" width="512" height="367" rx="10" fill="#112130"/>
</g>
<mask id="mask0_437_2425" style="mask-type:alpha" maskUnits="userSpaceOnUse" x="126" y="89" width="512" height="383">
<rect x="126" y="89" width="512" height="383" rx="10" fill="white"/>
</mask>
<g mask="url(#mask0_437_2425)">
</g>
<g clip-path="url(#clip0_437_2425)">
<g filter="url(#filter1_d_437_2425)">
<path fill-rule="evenodd" clip-rule="evenodd" d="M432.969 165.781C432.969 163.296 430.954 161.281 428.469 161.281C425.983 161.281 423.969 163.296 423.969 165.781V201.656H381.5V165.781H266.375C261.286 165.781 256.406 167.803 252.807 171.401C249.209 174.999 247.188 179.88 247.188 184.969V396.031C247.188 401.12 249.209 406.001 252.807 409.599C256.406 413.197 261.286 415.219 266.375 415.219H496.625C501.714 415.219 506.594 413.197 510.193 409.599C513.791 406.001 515.812 401.12 515.812 396.031V300.094H487.531V258.625H515.812C518.298 258.625 520.312 256.61 520.312 254.125C520.312 251.64 518.298 249.625 515.812 249.625H487.531V210.656H515.812C518.298 210.656 520.312 208.642 520.312 206.156C520.312 203.671 518.298 201.656 515.812 201.656H487.531V165.781C487.531 163.296 485.517 161.281 483.031 161.281C480.546 161.281 478.531 163.296 478.531 165.781V201.656H432.969V165.781ZM478.531 300.094V258.625H432.969V300.094H478.531ZM423.969 300.094V258.625H381.5V300.094H423.969ZM381.5 249.625H423.969V210.656H381.5V249.625ZM478.531 210.656V249.625H432.969V210.656H478.531Z" fill="#243846"/>
</g>
<rect x="267" y="196" width="99" height="9" rx="4.5" fill="#EDC538"/>
<rect x="267" y="217" width="52" height="9" rx="4.5" fill="#F45052"/>
<rect x="267" y="238" width="71" height="9" rx="4.5" fill="#FF9900"/>
<rect x="267" y="271" width="99" height="9" rx="4.5" fill="#EDC538"/>
<rect x="267" y="292" width="26" height="9" rx="4.5" fill="#9DB5C7"/>
<rect x="267" y="313" width="71" height="9" rx="4.5" fill="#FF9900"/>
<rect x="267" y="346" width="234" height="9" rx="4.5" fill="#179D5D"/>
<rect x="267" y="367" width="40" height="9" rx="4.5" fill="#F45052"/>
<rect x="267" y="388" width="122.909" height="9" rx="4.5" fill="#9DB5C7"/>
</g>
<g filter="url(#filter2_d_437_2425)">
<rect x="92" y="438" width="283" height="82" rx="10" fill="#1A2C3F"/>
</g>
<rect x="92" y="520" width="82" height="82" rx="10" transform="rotate(-90 92 520)" fill="#1A2C3F"/>
<path d="M189.504 473V461.8H194.4C195.616 461.8 196.683 462.035 197.6 462.504C198.517 462.973 199.232 463.624 199.744 464.456C200.256 465.288 200.512 466.269 200.512 467.4C200.512 468.52 200.256 469.501 199.744 470.344C199.232 471.176 198.517 471.827 197.6 472.296C196.683 472.765 195.616 473 194.4 473H189.504ZM191.584 471.24H194.304C195.147 471.24 195.872 471.08 196.48 470.76C197.099 470.44 197.573 469.992 197.904 469.416C198.245 468.84 198.416 468.168 198.416 467.4C198.416 466.621 198.245 465.949 197.904 465.384C197.573 464.808 197.099 464.36 196.48 464.04C195.872 463.72 195.147 463.56 194.304 463.56H191.584V471.24ZM207.795 473V471.272L207.683 470.904V467.88C207.683 467.293 207.507 466.84 207.155 466.52C206.803 466.189 206.269 466.024 205.555 466.024C205.075 466.024 204.6 466.099 204.131 466.248C203.672 466.397 203.283 466.605 202.963 466.872L202.179 465.416C202.637 465.064 203.181 464.803 203.811 464.632C204.451 464.451 205.112 464.36 205.795 464.36C207.032 464.36 207.987 464.659 208.659 465.256C209.341 465.843 209.683 466.755 209.683 467.992V473H207.795ZM205.107 473.112C204.467 473.112 203.907 473.005 203.427 472.792C202.947 472.568 202.573 472.264 202.307 471.88C202.051 471.485 201.923 471.043 201.923 470.552C201.923 470.072 202.035 469.64 202.259 469.256C202.493 468.872 202.872 468.568 203.395 468.344C203.917 468.12 204.611 468.008 205.475 468.008H207.955V469.336H205.619C204.936 469.336 204.477 469.448 204.243 469.672C204.008 469.885 203.891 470.152 203.891 470.472C203.891 470.835 204.035 471.123 204.323 471.336C204.611 471.549 205.011 471.656 205.523 471.656C206.013 471.656 206.451 471.544 206.835 471.32C207.229 471.096 207.512 470.765 207.683 470.328L208.019 471.528C207.827 472.029 207.48 472.419 206.979 472.696C206.488 472.973 205.864 473.112 205.107 473.112ZM215.466 473.112C214.527 473.112 213.802 472.872 213.289 472.392C212.778 471.901 212.522 471.181 212.522 470.232V462.568H214.522V470.184C214.522 470.589 214.623 470.904 214.826 471.128C215.039 471.352 215.332 471.464 215.706 471.464C216.154 471.464 216.527 471.347 216.826 471.112L217.386 472.536C217.151 472.728 216.863 472.872 216.522 472.968C216.18 473.064 215.828 473.112 215.466 473.112ZM211.114 466.12V464.52H216.81V466.12H211.114ZM224.295 473V471.272L224.183 470.904V467.88C224.183 467.293 224.007 466.84 223.655 466.52C223.303 466.189 222.769 466.024 222.055 466.024C221.575 466.024 221.1 466.099 220.631 466.248C220.172 466.397 219.783 466.605 219.463 466.872L218.679 465.416C219.137 465.064 219.681 464.803 220.311 464.632C220.951 464.451 221.612 464.36 222.295 464.36C223.532 464.36 224.487 464.659 225.159 465.256C225.841 465.843 226.183 466.755 226.183 467.992V473H224.295ZM221.607 473.112C220.967 473.112 220.407 473.005 219.927 472.792C219.447 472.568 219.073 472.264 218.807 471.88C218.551 471.485 218.423 471.043 218.423 470.552C218.423 470.072 218.535 469.64 218.759 469.256C218.993 468.872 219.372 468.568 219.895 468.344C220.417 468.12 221.111 468.008 221.975 468.008H224.455V469.336H222.119C221.436 469.336 220.977 469.448 220.743 469.672C220.508 469.885 220.391 470.152 220.391 470.472C220.391 470.835 220.535 471.123 220.823 471.336C221.111 471.549 221.511 471.656 222.023 471.656C222.513 471.656 222.951 471.544 223.335 471.32C223.729 471.096 224.012 470.765 224.183 470.328L224.519 471.528C224.327 472.029 223.98 472.419 223.479 472.696C222.988 472.973 222.364 473.112 221.607 473.112ZM189.504 497V485.8H194.752C196.096 485.8 197.12 486.067 197.824 486.6C198.528 487.123 198.88 487.827 198.88 488.712C198.88 489.309 198.741 489.821 198.464 490.248C198.187 490.664 197.813 490.989 197.344 491.224C196.885 491.448 196.384 491.56 195.84 491.56L196.128 490.984C196.757 490.984 197.323 491.101 197.824 491.336C198.325 491.56 198.72 491.891 199.008 492.328C199.307 492.765 199.456 493.309 199.456 493.96C199.456 494.92 199.088 495.667 198.352 496.2C197.616 496.733 196.523 497 195.072 497H189.504ZM191.584 495.368H194.944C195.723 495.368 196.32 495.24 196.736 494.984C197.152 494.728 197.36 494.317 197.36 493.752C197.36 493.197 197.152 492.792 196.736 492.536C196.32 492.269 195.723 492.136 194.944 492.136H191.424V490.52H194.528C195.253 490.52 195.808 490.392 196.192 490.136C196.587 489.88 196.784 489.496 196.784 488.984C196.784 488.461 196.587 488.072 196.192 487.816C195.808 487.56 195.253 487.432 194.528 487.432H191.584V495.368ZM206.748 497V495.272L206.636 494.904V491.88C206.636 491.293 206.46 490.84 206.108 490.52C205.756 490.189 205.223 490.024 204.508 490.024C204.028 490.024 203.553 490.099 203.084 490.248C202.625 490.397 202.236 490.605 201.916 490.872L201.132 489.416C201.591 489.064 202.135 488.803 202.764 488.632C203.404 488.451 204.065 488.36 204.748 488.36C205.985 488.36 206.94 488.659 207.612 489.256C208.295 489.843 208.636 490.755 208.636 491.992V497H206.748ZM204.06 497.112C203.42 497.112 202.86 497.005 202.38 496.792C201.9 496.568 201.527 496.264 201.26 495.88C201.004 495.485 200.876 495.043 200.876 494.552C200.876 494.072 200.988 493.64 201.212 493.256C201.447 492.872 201.825 492.568 202.348 492.344C202.871 492.12 203.564 492.008 204.428 492.008H206.908V493.336H204.572C203.889 493.336 203.431 493.448 203.196 493.672C202.961 493.885 202.844 494.152 202.844 494.472C202.844 494.835 202.988 495.123 203.276 495.336C203.564 495.549 203.964 495.656 204.476 495.656C204.967 495.656 205.404 495.544 205.788 495.32C206.183 495.096 206.465 494.765 206.636 494.328L206.972 495.528C206.78 496.029 206.433 496.419 205.932 496.696C205.441 496.973 204.817 497.112 204.06 497.112ZM215.138 497.112C214.242 497.112 213.442 496.925 212.738 496.552C212.045 496.168 211.501 495.645 211.106 494.984C210.712 494.323 210.514 493.571 210.514 492.728C210.514 491.875 210.712 491.123 211.106 490.472C211.501 489.811 212.045 489.293 212.738 488.92C213.442 488.547 214.242 488.36 215.138 488.36C215.97 488.36 216.701 488.531 217.33 488.872C217.97 489.203 218.456 489.693 218.786 490.344L217.25 491.24C216.994 490.835 216.68 490.536 216.306 490.344C215.944 490.152 215.549 490.056 215.122 490.056C214.632 490.056 214.189 490.163 213.794 490.376C213.4 490.589 213.09 490.899 212.866 491.304C212.642 491.699 212.53 492.173 212.53 492.728C212.53 493.283 212.642 493.763 212.866 494.168C213.09 494.563 213.4 494.867 213.794 495.08C214.189 495.293 214.632 495.4 215.122 495.4C215.549 495.4 215.944 495.304 216.306 495.112C216.68 494.92 216.994 494.621 217.25 494.216L218.786 495.112C218.456 495.752 217.97 496.248 217.33 496.6C216.701 496.941 215.97 497.112 215.138 497.112ZM222.069 495.096L222.117 492.584L226.581 488.456H228.981L225.189 492.264L224.133 493.144L222.069 495.096ZM220.437 497V485.128H222.437V497H220.437ZM226.885 497L223.765 493.144L225.029 491.544L229.317 497H226.885ZM234.069 497.112C233.343 497.112 232.703 496.979 232.149 496.712C231.594 496.435 231.162 496.019 230.853 495.464C230.543 494.899 230.389 494.189 230.389 493.336V488.456H232.389V493.064C232.389 493.832 232.559 494.408 232.901 494.792C233.253 495.165 233.749 495.352 234.389 495.352C234.858 495.352 235.263 495.256 235.605 495.064C235.957 494.872 236.229 494.584 236.421 494.2C236.623 493.816 236.725 493.341 236.725 492.776V488.456H238.725V497H236.821V494.696L237.157 495.4C236.869 495.955 236.447 496.381 235.893 496.68C235.338 496.968 234.73 497.112 234.069 497.112ZM246.079 497.112C245.386 497.112 244.751 496.952 244.175 496.632C243.61 496.312 243.157 495.832 242.815 495.192C242.485 494.541 242.319 493.72 242.319 492.728C242.319 491.725 242.479 490.904 242.799 490.264C243.13 489.624 243.578 489.149 244.143 488.84C244.709 488.52 245.354 488.36 246.079 488.36C246.922 488.36 247.663 488.541 248.303 488.904C248.954 489.267 249.466 489.773 249.839 490.424C250.223 491.075 250.415 491.843 250.415 492.728C250.415 493.613 250.223 494.387 249.839 495.048C249.466 495.699 248.954 496.205 248.303 496.568C247.663 496.931 246.922 497.112 246.079 497.112ZM241.343 500.104V488.456H243.247V490.472L243.183 492.744L243.343 495.016V500.104H241.343ZM245.855 495.4C246.335 495.4 246.762 495.293 247.135 495.08C247.519 494.867 247.823 494.557 248.047 494.152C248.271 493.747 248.383 493.272 248.383 492.728C248.383 492.173 248.271 491.699 248.047 491.304C247.823 490.899 247.519 490.589 247.135 490.376C246.762 490.163 246.335 490.056 245.855 490.056C245.375 490.056 244.943 490.163 244.559 490.376C244.175 490.589 243.871 490.899 243.647 491.304C243.423 491.699 243.311 492.173 243.311 492.728C243.311 493.272 243.423 493.747 243.647 494.152C243.871 494.557 244.175 494.867 244.559 495.08C244.943 495.293 245.375 495.4 245.855 495.4ZM254.952 497.112C254.237 497.112 253.549 497.021 252.888 496.84C252.237 496.648 251.72 496.419 251.336 496.152L252.104 494.632C252.488 494.877 252.947 495.08 253.48 495.24C254.013 495.4 254.547 495.48 255.08 495.48C255.709 495.48 256.163 495.395 256.44 495.224C256.728 495.053 256.872 494.824 256.872 494.536C256.872 494.301 256.776 494.125 256.584 494.008C256.392 493.88 256.141 493.784 255.832 493.72C255.523 493.656 255.176 493.597 254.792 493.544C254.419 493.491 254.04 493.421 253.656 493.336C253.283 493.24 252.941 493.107 252.632 492.936C252.323 492.755 252.072 492.515 251.88 492.216C251.688 491.917 251.592 491.523 251.592 491.032C251.592 490.488 251.747 490.019 252.056 489.624C252.365 489.219 252.797 488.909 253.352 488.696C253.917 488.472 254.584 488.36 255.352 488.36C255.928 488.36 256.509 488.424 257.096 488.552C257.683 488.68 258.168 488.861 258.552 489.096L257.784 490.616C257.379 490.371 256.968 490.205 256.552 490.12C256.147 490.024 255.741 489.976 255.336 489.976C254.728 489.976 254.275 490.067 253.976 490.248C253.688 490.429 253.544 490.659 253.544 490.936C253.544 491.192 253.64 491.384 253.832 491.512C254.024 491.64 254.275 491.741 254.584 491.816C254.893 491.891 255.235 491.955 255.608 492.008C255.992 492.051 256.371 492.12 256.744 492.216C257.117 492.312 257.459 492.445 257.768 492.616C258.088 492.776 258.344 493.005 258.536 493.304C258.728 493.603 258.824 493.992 258.824 494.472C258.824 495.005 258.664 495.469 258.344 495.864C258.035 496.259 257.592 496.568 257.016 496.792C256.44 497.005 255.752 497.112 254.952 497.112Z" fill="white"/>
<path d="M133 497.25C132.648 497.25 132.297 497.215 131.945 497.145C131.617 497.098 131.301 497.004 130.996 496.863L129.414 496.266C127.609 495.562 125.957 494.613 124.457 493.418C122.957 492.223 121.668 490.852 120.59 489.305C119.535 487.734 118.715 486.035 118.129 484.207C117.543 482.379 117.25 480.492 117.25 478.547V467.121C117.25 466.465 117.426 465.867 117.777 465.328C118.129 464.766 118.609 464.344 119.219 464.062C120.273 463.594 121.352 463.184 122.453 462.832C123.555 462.48 124.668 462.188 125.793 461.953C126.918 461.719 128.055 461.543 129.203 461.426C130.352 461.309 131.512 461.25 132.684 461.25H133H133.281C134.453 461.25 135.613 461.309 136.762 461.426C137.91 461.543 139.047 461.719 140.172 461.953C141.297 462.188 142.41 462.48 143.512 462.832C144.613 463.184 145.703 463.594 146.781 464.062C147.391 464.344 147.871 464.766 148.223 465.328C148.574 465.891 148.75 466.5 148.75 467.156V478.547C148.75 480.492 148.457 482.379 147.871 484.207C147.285 486.035 146.453 487.734 145.375 489.305C144.32 490.852 143.043 492.223 141.543 493.418C140.043 494.613 138.391 495.562 136.586 496.266L135.004 496.863C134.699 497.004 134.371 497.098 134.02 497.145C133.691 497.215 133.352 497.25 133 497.25ZM132.684 463.5C131.605 463.5 130.527 463.559 129.449 463.676C128.395 463.77 127.34 463.934 126.285 464.168C125.23 464.379 124.188 464.648 123.156 464.977C122.125 465.305 121.117 465.691 120.133 466.137C119.945 466.207 119.793 466.336 119.676 466.523C119.559 466.711 119.5 466.91 119.5 467.121V478.547C119.5 480.281 119.758 481.945 120.273 483.539C120.789 485.156 121.516 486.656 122.453 488.039C123.391 489.398 124.516 490.605 125.828 491.66C127.164 492.715 128.629 493.559 130.223 494.191L131.805 494.789C131.992 494.859 132.18 494.918 132.367 494.965C132.578 494.988 132.789 495 133 495C133.211 495 133.41 494.988 133.598 494.965C133.809 494.918 134.008 494.859 134.195 494.789L135.777 494.191C137.371 493.559 138.836 492.715 140.172 491.66C141.484 490.605 142.609 489.398 143.547 488.039C144.484 486.656 145.211 485.156 145.727 483.539C146.242 481.945 146.5 480.281 146.5 478.547V467.121C146.5 466.91 146.441 466.711 146.324 466.523C146.207 466.336 146.055 466.195 145.867 466.102C144.859 465.68 143.852 465.305 142.844 464.977C141.812 464.648 140.77 464.379 139.715 464.168C138.66 463.934 137.605 463.77 136.551 463.676C135.473 463.559 134.383 463.5 133.281 463.5H133H132.684ZM133.035 486C132.801 486 132.578 486 132.367 486C132.156 485.977 131.945 485.941 131.734 485.895C130.539 485.73 129.426 485.344 128.395 484.734C127.387 484.125 126.52 483.34 125.793 482.379C125.066 481.418 124.551 480.363 124.246 479.215C123.965 478.066 123.918 476.895 124.105 475.699C124.27 474.621 124.609 473.602 125.125 472.641C125.664 471.703 126.332 470.895 127.129 470.215C127.926 469.512 128.828 468.973 129.836 468.598C130.844 468.199 131.898 468 133 468C133.305 468 133.562 468.117 133.773 468.352C134.008 468.562 134.125 468.82 134.125 469.125C134.125 469.266 134.09 469.406 134.02 469.547C133.973 469.688 133.902 469.816 133.809 469.934C133.691 470.027 133.562 470.109 133.422 470.18C133.281 470.227 133.141 470.25 133 470.25C131.336 470.25 129.859 470.801 128.57 471.902C127.305 473.004 126.555 474.387 126.32 476.051C126.203 476.941 126.25 477.82 126.461 478.688C126.672 479.531 127.047 480.316 127.586 481.043C128.125 481.77 128.781 482.367 129.555 482.836C130.328 483.281 131.16 483.562 132.051 483.68C132.215 483.703 132.379 483.727 132.543 483.75C132.707 483.75 132.871 483.75 133.035 483.75C133.762 483.75 134.465 483.645 135.145 483.434C135.824 483.199 136.457 482.859 137.043 482.414C137.77 481.875 138.355 481.23 138.801 480.48C139.27 479.707 139.562 478.863 139.68 477.949C139.727 477.691 139.855 477.469 140.066 477.281C140.277 477.094 140.523 477 140.805 477C140.828 477 140.852 477 140.875 477C140.898 477 140.922 477 140.945 477C141.273 477.047 141.52 477.199 141.684 477.457C141.871 477.691 141.953 477.973 141.93 478.301C141.742 479.473 141.344 480.574 140.734 481.605C140.148 482.613 139.363 483.48 138.379 484.207C137.605 484.793 136.762 485.238 135.848 485.543C134.934 485.848 133.996 486 133.035 486ZM133 479.672C132.719 479.672 132.449 479.625 132.191 479.531C131.934 479.414 131.711 479.262 131.523 479.074L129.273 476.824C129.039 476.59 128.922 476.32 128.922 476.016C128.922 475.711 129.039 475.441 129.273 475.207C129.367 475.113 129.484 475.043 129.625 474.996C129.766 474.926 129.906 474.891 130.047 474.891C130.211 474.891 130.352 474.926 130.469 474.996C130.609 475.043 130.738 475.113 130.855 475.207L133 477.387L140.066 470.285C140.184 470.191 140.312 470.121 140.453 470.074C140.594 470.004 140.734 469.969 140.875 469.969C141.016 469.969 141.156 470.004 141.297 470.074C141.438 470.121 141.566 470.191 141.684 470.285C141.777 470.402 141.848 470.531 141.895 470.672C141.965 470.812 142 470.953 142 471.094C142 471.234 141.965 471.375 141.895 471.516C141.848 471.656 141.777 471.785 141.684 471.902L134.477 479.074C134.289 479.262 134.066 479.414 133.809 479.531C133.551 479.625 133.281 479.672 133 479.672Z" fill="#179D5D"/>
<path d="M313.551 469C307.734 469 303 473.711 303 479.5C303 485.289 307.734 490 313.551 490H344.449C344.814 490 345.179 489.988 345.533 489.953C347.299 489.771 348.936 489.162 350.337 488.219C351.738 487.275 352.916 486.004 353.728 484.516C353.893 484.217 354.017 483.895 354.152 483.578C354.293 483.25 354.423 482.939 354.529 482.594C354.635 482.266 354.694 481.949 354.764 481.609C354.906 480.924 355 480.227 355 479.5C355 479.137 354.988 478.773 354.953 478.422C354.882 477.73 354.729 477.051 354.529 476.406C354.523 476.395 354.535 476.371 354.529 476.359C354.323 475.703 354.052 475.082 353.728 474.484C353.563 474.186 353.399 473.922 353.21 473.641C352.262 472.246 350.985 471.074 349.489 470.266C348.906 469.949 348.253 469.674 347.605 469.469C347.593 469.463 347.57 469.475 347.558 469.469C347.228 469.363 346.91 469.305 346.569 469.234C345.88 469.094 345.179 469 344.449 469H313.551ZM344.449 472C348.63 472 351.986 475.34 351.986 479.5C351.986 483.66 348.63 487 344.449 487C340.269 487 336.913 483.66 336.913 479.5C336.913 475.34 340.269 472 344.449 472Z" fill="#009FE3"/>
<g filter="url(#filter3_d_437_2425)">
<rect x="410" y="58" width="283" height="82" rx="10" fill="#1A2C3F"/>
</g>
<rect x="410" y="140" width="82" height="82" rx="10" transform="rotate(-90 410 140)" fill="#1A2C3F"/>
<g clip-path="url(#clip1_437_2425)">
<path d="M467.875 102.375H434.125V115.875H467.875V102.375Z" stroke="#F45052" stroke-width="2" stroke-linecap="round" stroke-linejoin="round"/>
<path d="M434.125 109.125H467.875" stroke="#F45052" stroke-width="2" stroke-linecap="round" stroke-linejoin="round"/>
<path d="M456.625 102.375V109.125" stroke="#F45052" stroke-width="2" stroke-linecap="round" stroke-linejoin="round"/>
<path d="M445.375 102.375V109.125" stroke="#F45052" stroke-width="2" stroke-linecap="round" stroke-linejoin="round"/>
<path d="M440.875 109.125V115.875" stroke="#F45052" stroke-width="2" stroke-linecap="round" stroke-linejoin="round"/>
<path d="M452.125 109.125V115.875" stroke="#F45052" stroke-width="2" stroke-linecap="round" stroke-linejoin="round"/>
<path d="M463.375 109.125V115.875" stroke="#F45052" stroke-width="2" stroke-linecap="round" stroke-linejoin="round"/>
<path d="M450.1 102.375C446.05 102.375 442 99.3525 442 95.625C442 91.575 444.025 88.875 447.4 88.875C446.95 91.125 446.725 92.925 449.425 92.925C453.475 92.925 452.376 87.0375 448.075 82.125C453.667 82.125 459.55 87.75 459.55 92.25C459.55 97.842 458.2 102.375 450.1 102.375Z" stroke="#F45052" stroke-width="2" stroke-linecap="round" stroke-linejoin="round"/>
</g>
<path d="M509.408 98.952H514.992V100.712H509.408V98.952ZM509.584 105H507.504V93.8H515.68V95.544H509.584V105ZM517.5 105V96.456H519.5V105H517.5ZM518.508 95.048C518.134 95.048 517.825 94.9307 517.58 94.696C517.345 94.4613 517.228 94.1787 517.228 93.848C517.228 93.5067 517.345 93.224 517.58 93C517.825 92.7653 518.134 92.648 518.508 92.648C518.881 92.648 519.185 92.76 519.42 92.984C519.665 93.1973 519.788 93.4693 519.788 93.8C519.788 94.152 519.67 94.4507 519.436 94.696C519.201 94.9307 518.892 95.048 518.508 95.048ZM522.125 105V96.456H524.029V98.808L523.805 98.12C524.061 97.544 524.461 97.1067 525.005 96.808C525.559 96.5093 526.247 96.36 527.069 96.36V98.264C526.983 98.2427 526.903 98.232 526.829 98.232C526.754 98.2213 526.679 98.216 526.605 98.216C525.847 98.216 525.245 98.44 524.797 98.888C524.349 99.3253 524.125 99.9813 524.125 100.856V105H522.125ZM532.703 105.112C531.754 105.112 530.922 104.925 530.207 104.552C529.503 104.168 528.954 103.645 528.559 102.984C528.175 102.323 527.983 101.571 527.983 100.728C527.983 99.8747 528.17 99.1227 528.543 98.472C528.927 97.8107 529.45 97.2933 530.111 96.92C530.783 96.5467 531.546 96.36 532.399 96.36C533.231 96.36 533.972 96.5413 534.623 96.904C535.274 97.2667 535.786 97.7787 536.159 98.44C536.532 99.1013 536.719 99.88 536.719 100.776C536.719 100.861 536.714 100.957 536.703 101.064C536.703 101.171 536.698 101.272 536.687 101.368H529.567V100.04H535.631L534.847 100.456C534.858 99.9653 534.756 99.5333 534.543 99.16C534.33 98.7867 534.036 98.4933 533.663 98.28C533.3 98.0667 532.879 97.96 532.399 97.96C531.908 97.96 531.476 98.0667 531.103 98.28C530.74 98.4933 530.452 98.792 530.239 99.176C530.036 99.5493 529.935 99.992 529.935 100.504V100.824C529.935 101.336 530.052 101.789 530.287 102.184C530.522 102.579 530.852 102.883 531.279 103.096C531.706 103.309 532.196 103.416 532.751 103.416C533.231 103.416 533.663 103.341 534.047 103.192C534.431 103.043 534.772 102.808 535.071 102.488L536.143 103.72C535.759 104.168 535.274 104.515 534.687 104.76C534.111 104.995 533.45 105.112 532.703 105.112ZM540.372 105L537.236 96.456H539.124L541.812 103.992H540.916L543.732 96.456H545.412L548.148 103.992H547.268L550.036 96.456H551.812L548.66 105H546.74L544.244 98.328H544.836L542.292 105H540.372ZM558.185 105V103.272L558.073 102.904V99.88C558.073 99.2933 557.897 98.84 557.545 98.52C557.193 98.1893 556.66 98.024 555.945 98.024C555.465 98.024 554.991 98.0987 554.521 98.248C554.063 98.3973 553.673 98.6053 553.353 98.872L552.569 97.416C553.028 97.064 553.572 96.8027 554.201 96.632C554.841 96.4507 555.503 96.36 556.185 96.36C557.423 96.36 558.377 96.6587 559.049 97.256C559.732 97.8427 560.073 98.7547 560.073 99.992V105H558.185ZM555.497 105.112C554.857 105.112 554.297 105.005 553.817 104.792C553.337 104.568 552.964 104.264 552.697 103.88C552.441 103.485 552.313 103.043 552.313 102.552C552.313 102.072 552.425 101.64 552.649 101.256C552.884 100.872 553.263 100.568 553.785 100.344C554.308 100.12 555.001 100.008 555.865 100.008H558.345V101.336H556.009C555.327 101.336 554.868 101.448 554.633 101.672C554.399 101.885 554.281 102.152 554.281 102.472C554.281 102.835 554.425 103.123 554.713 103.336C555.001 103.549 555.401 103.656 555.913 103.656C556.404 103.656 556.841 103.544 557.225 103.32C557.62 103.096 557.903 102.765 558.073 102.328L558.409 103.528C558.217 104.029 557.871 104.419 557.369 104.696C556.879 104.973 556.255 105.112 555.497 105.112ZM562.64 105V93.128H564.64V105H562.64ZM567.265 105V93.128H569.265V105H567.265Z" fill="white"/>
<path d="M631.551 89C625.734 89 621 93.7109 621 99.5C621 105.289 625.734 110 631.551 110H662.449C662.814 110 663.179 109.988 663.533 109.953C665.299 109.771 666.936 109.162 668.337 108.219C669.738 107.275 670.916 106.004 671.728 104.516C671.893 104.217 672.017 103.895 672.152 103.578C672.293 103.25 672.423 102.939 672.529 102.594C672.635 102.266 672.694 101.949 672.764 101.609C672.906 100.924 673 100.227 673 99.5C673 99.1367 672.988 98.7734 672.953 98.4219C672.882 97.7305 672.729 97.0508 672.529 96.4062C672.523 96.3945 672.535 96.3711 672.529 96.3594C672.323 95.7031 672.052 95.082 671.728 94.4844C671.563 94.1855 671.399 93.9219 671.21 93.6406C670.262 92.2461 668.985 91.0742 667.489 90.2656C666.906 89.9492 666.253 89.6738 665.605 89.4688C665.593 89.4629 665.57 89.4746 665.558 89.4688C665.228 89.3633 664.91 89.3047 664.569 89.2344C663.88 89.0938 663.179 89 662.449 89H631.551ZM662.449 92C666.63 92 669.986 95.3398 669.986 99.5C669.986 103.66 666.63 107 662.449 107C658.269 107 654.913 103.66 654.913 99.5C654.913 95.3398 658.269 92 662.449 92Z" fill="#009FE3"/>
<defs>
<filter id="filter0_d_437_2425" x="91" y="80" width="582" height="437" filterUnits="userSpaceOnUse" color-interpolation-filters="sRGB">
<feFlood flood-opacity="0" result="BackgroundImageFix"/>
<feColorMatrix in="SourceAlpha" type="matrix" values="0 0 0 0 0 0 0 0 0 0 0 0 0 0 0 0 0 0 127 0" result="hardAlpha"/>
<feOffset dy="10"/>
<feGaussianBlur stdDeviation="17.5"/>
<feComposite in2="hardAlpha" operator="out"/>
<feColorMatrix type="matrix" values="0 0 0 0 0.243137 0 0 0 0 0.372549 0 0 0 0 0.517647 0 0 0 0.1 0"/>
<feBlend mode="normal" in2="BackgroundImageFix" result="effect1_dropShadow_437_2425"/>
<feBlend mode="normal" in="SourceGraphic" in2="effect1_dropShadow_437_2425" result="shape"/>
</filter>
<filter id="filter1_d_437_2425" x="155.188" y="103.281" width="457.125" height="437.938" filterUnits="userSpaceOnUse" color-interpolation-filters="sRGB">
<feFlood flood-opacity="0" result="BackgroundImageFix"/>
<feColorMatrix in="SourceAlpha" type="matrix" values="0 0 0 0 0 0 0 0 0 0 0 0 0 0 0 0 0 0 127 0" result="hardAlpha"/>
<feOffset dy="34"/>
<feGaussianBlur stdDeviation="46"/>
<feComposite in2="hardAlpha" operator="out"/>
<feColorMatrix type="matrix" values="0 0 0 0 0.243137 0 0 0 0 0.372549 0 0 0 0 0.517647 0 0 0 0.1 0"/>
<feBlend mode="normal" in2="BackgroundImageFix" result="effect1_dropShadow_437_2425"/>
<feBlend mode="normal" in="SourceGraphic" in2="effect1_dropShadow_437_2425" result="shape"/>
</filter>
<filter id="filter2_d_437_2425" x="0" y="380" width="467" height="266" filterUnits="userSpaceOnUse" color-interpolation-filters="sRGB">
<feFlood flood-opacity="0" result="BackgroundImageFix"/>
<feColorMatrix in="SourceAlpha" type="matrix" values="0 0 0 0 0 0 0 0 0 0 0 0 0 0 0 0 0 0 127 0" result="hardAlpha"/>
<feOffset dy="34"/>
<feGaussianBlur stdDeviation="46"/>
<feComposite in2="hardAlpha" operator="out"/>
<feColorMatrix type="matrix" values="0 0 0 0 0.243137 0 0 0 0 0.372549 0 0 0 0 0.517647 0 0 0 0.1 0"/>
<feBlend mode="normal" in2="BackgroundImageFix" result="effect1_dropShadow_437_2425"/>
<feBlend mode="normal" in="SourceGraphic" in2="effect1_dropShadow_437_2425" result="shape"/>
</filter>
<filter id="filter3_d_437_2425" x="318" y="0" width="467" height="266" filterUnits="userSpaceOnUse" color-interpolation-filters="sRGB">
<feFlood flood-opacity="0" result="BackgroundImageFix"/>
<feColorMatrix in="SourceAlpha" type="matrix" values="0 0 0 0 0 0 0 0 0 0 0 0 0 0 0 0 0 0 127 0" result="hardAlpha"/>
<feOffset dy="34"/>
<feGaussianBlur stdDeviation="46"/>
<feComposite in2="hardAlpha" operator="out"/>
<feColorMatrix type="matrix" values="0 0 0 0 0.243137 0 0 0 0 0.372549 0 0 0 0 0.517647 0 0 0 0.1 0"/>
<feBlend mode="normal" in2="BackgroundImageFix" result="effect1_dropShadow_437_2425"/>
<feBlend mode="normal" in="SourceGraphic" in2="effect1_dropShadow_437_2425" result="shape"/>
</filter>
<clipPath id="clip0_437_2425">
<rect width="415" height="356" fill="white" transform="translate(163 116)"/>
</clipPath>
<clipPath id="clip1_437_2425">
<rect width="36" height="36" fill="white" transform="translate(433 81)"/>
</clipPath>
</defs>
</svg>
